<svg xmlns="http://www.w3.org/2000/svg" width="25.908" height="25.907" viewBox="0 0 25.908 25.907">
  <g id="phone-call" transform="translate(0 -0.002)">
    <g id="Group_4067" data-name="Group 4067" transform="translate(0 0.002)">
      <path id="Path_247" data-name="Path 247" d="M25.905,20.877a3.832,3.832,0,0,0-1.175-2.633A9.413,9.413,0,0,0,21,15.768a4.171,4.171,0,0,0-4.283,1.215l-.006.006-1.368,1.358a20.5,20.5,0,0,1-4.314-3.337l-.133-.133a20.507,20.507,0,0,1-3.337-4.314L8.92,9.195l.006-.006a4.171,4.171,0,0,0,1.215-4.283A9.413,9.413,0,0,0,7.666,1.179,3.851,3.851,0,0,0,2.321.987l-.029.026-.039.037A8.211,8.211,0,0,0,0,7.065c.021,4.161,2.307,8.918,6.117,12.728a24.666,24.666,0,0,0,2.426,2.113A1.012,1.012,0,0,0,9.775,20.3a22.661,22.661,0,0,1-2.227-1.938C4.107,14.921,2.042,10.694,2.024,7.055A6.252,6.252,0,0,1,3.665,2.5l.008-.007a1.82,1.82,0,0,1,2.536.091c2.62,2.717,2.43,4,1.273,5.187L5.605,9.662A1.012,1.012,0,0,0,5.4,10.786a20.449,20.449,0,0,0,4.069,5.522l.133.133a20.446,20.446,0,0,0,5.522,4.069,1.012,1.012,0,0,0,1.125-.206l1.89-1.876c1.187-1.158,2.47-1.347,5.187,1.273a1.82,1.82,0,0,1,.092,2.535l-.007.008A6.233,6.233,0,0,1,18.9,23.885h-.046A13.123,13.123,0,0,1,13.861,22.7a1.012,1.012,0,0,0-.8,1.859,14.93,14.93,0,0,0,5.785,1.348H18.9a8.193,8.193,0,0,0,5.958-2.252l.037-.039.026-.029A3.832,3.832,0,0,0,25.905,20.877Z" transform="translate(0 -0.002)" fill="#fff"/>
    </g>
  </g>
</svg>
