<svg id="love" xmlns="http://www.w3.org/2000/svg" width="30.333" height="25.476" viewBox="0 0 30.333 25.476">
  <g id="Group_4004" data-name="Group 4004" transform="translate(0 0)">
    <path id="Path_180" data-name="Path 180" d="M27.821,43.347a8.782,8.782,0,0,0-11.968,0L15.167,44l-.685-.651a8.784,8.784,0,0,0-11.969,0,7.849,7.849,0,0,0,0,11.512L14.434,66.176a1.064,1.064,0,0,0,1.465,0L27.821,54.859a7.849,7.849,0,0,0,0-11.512Zm-1.467,9.969L15.167,63.937,3.98,53.316a5.72,5.72,0,0,1,0-8.427,6.629,6.629,0,0,1,9.034,0l1.419,1.348a1.064,1.064,0,0,0,1.466,0l1.419-1.349a6.629,6.629,0,0,1,9.034,0,5.72,5.72,0,0,1,0,8.426Z" transform="translate(0 -40.993)" fill="#fff"/>
  </g>
</svg>
